<svg version="1.1" id="Layer_1" xmlns="http://www.w3.org/2000/svg" x="0" y="0" viewBox="0 0 512 512" style="enable-background:new 0 0 512 512" xml:space="preserve"><path d="M270.566 104.909a8.523 8.523 0 0 0-12.066 0 8.525 8.525 0 0 0 0 12.066l34.133 34.133a8.51 8.51 0 0 0 6.033 2.5 8.509 8.509 0 0 0 6.033-2.5 8.525 8.525 0 0 0 0-12.066l-34.133-34.133zM219.366 121.975c-3.336-3.337-8.73-3.337-12.066 0s-3.337 8.73 0 12.066l68.267 68.267a8.51 8.51 0 0 0 6.033 2.5 8.509 8.509 0 0 0 6.033-2.5 8.525 8.525 0 0 0 0-12.066l-68.267-68.267z"/><path d="m366.481 330.291 37.939 37.939a8.473 8.473 0 0 0 6.033 2.5 8.504 8.504 0 0 0 6.033-2.5c3.328-3.328 3.328-8.73 0-12.066l-39.962-39.962c20.881-32.094 33.075-70.332 33.075-111.394 0-112.922-91.878-204.8-204.8-204.8S0 91.887 0 204.809s91.878 204.8 204.8 204.8c65.664 0 124.177-31.104 161.681-79.318zM204.8 392.542c-103.518 0-187.733-84.215-187.733-187.733S101.282 17.075 204.8 17.075s187.733 84.215 187.733 187.733S308.318 392.542 204.8 392.542z"/><path d="M204.8 34.142c-94.106 0-170.667 76.561-170.667 170.667S110.694 375.475 204.8 375.475s170.667-76.561 170.667-170.667S298.906 34.142 204.8 34.142zm0 324.267c-84.693 0-153.6-68.907-153.6-153.6s68.907-153.6 153.6-153.6 153.6 68.907 153.6 153.6-68.907 153.6-153.6 153.6zM499.499 439.177l-59.802-59.793a8.497 8.497 0 0 0-6.033-2.5h-.008a8.532 8.532 0 0 0-6.042 2.517l-24.064 24.192a8.524 8.524 0 0 0 .034 12.066c3.345 3.328 8.747 3.319 12.066-.034l18.031-18.125 53.751 53.743c4.83 4.838 7.501 11.264 7.501 18.108 0 6.827-2.671 13.261-7.501 18.091-9.975 9.975-26.206 9.992-36.198.009l-101.12-101.12c-3.328-3.328-8.73-3.328-12.066 0a8.55 8.55 0 0 0 0 12.075l101.12 101.111c8.311 8.32 19.234 12.476 30.157 12.476s21.862-4.164 30.174-12.476C507.554 491.452 512 480.742 512 469.35c0-11.4-4.446-22.118-12.501-30.173z"/></svg>